<svg width="24" height="24" viewBox="0 0 24 24" fill="none" xmlns="http://www.w3.org/2000/svg">
<path fill-rule="evenodd" clip-rule="evenodd" d="M12.5349 9.66364C11.4859 10.1654 10.6016 11.1078 10.2007 12.6612C10.1079 13.0211 9.80956 13.3028 9.43687 13.3688C7.09503 13.7836 6.12078 15.5061 6.31395 16.9723C6.41185 17.7153 6.80892 18.4374 7.54586 18.964C8.28532 19.4924 9.41114 19.853 10.9951 19.7684C12.0905 19.7099 14.4985 19.7398 16.5635 19.7654C17.5592 19.7778 18.4752 19.7892 19.1258 19.7892H19.147L19.1681 19.7904C20.3307 19.856 21.0824 19.5815 21.5375 19.2235C21.99 18.8676 22.2154 18.3791 22.2463 17.8706C22.3095 16.8314 21.5703 15.7543 20.2143 15.6864C19.5533 15.6533 19.1248 14.9796 19.3508 14.3726C19.8233 13.1039 19.5956 12.0362 18.9945 11.1993C18.3739 10.3352 17.3203 9.67632 16.1081 9.37584C14.899 9.07611 13.6053 9.15166 12.5349 9.66364ZM20.9497 14.2752C21.3246 12.7746 20.994 11.4118 20.2128 10.3242C19.3447 9.11566 17.9546 8.28815 16.469 7.9199C14.9804 7.55089 13.3222 7.62431 11.8877 8.31046C10.5135 8.96774 9.39067 10.1671 8.84045 11.9598C5.99673 12.6126 4.53124 14.925 4.8268 17.1682C4.97896 18.323 5.59865 19.4161 6.67375 20.1844C7.74634 20.9509 9.22784 21.3649 11.0751 21.2662C12.1224 21.2103 14.4105 21.239 16.4429 21.2644C17.4555 21.2771 18.4046 21.289 19.1052 21.2892C20.5274 21.3655 21.6597 21.0358 22.4649 20.4025C23.2767 19.7639 23.6884 18.8677 23.7435 17.9617C23.8414 16.3539 22.8076 14.6807 20.9497 14.2752Z" fill="black"/>
<path fill-rule="evenodd" clip-rule="evenodd" d="M4.72572 2.74571C5.11481 2.60364 5.5454 2.8039 5.68746 3.19299L6.08953 4.2942C6.2316 4.68328 6.03134 5.11387 5.64226 5.25593C5.25317 5.398 4.82258 5.19774 4.68052 4.80866L4.27844 3.70745C4.13638 3.31836 4.33663 2.88777 4.72572 2.74571ZM10.4031 3.03759C10.7797 3.21016 10.9451 3.65531 10.7725 4.03187L10.3111 5.03861C10.1386 5.41516 9.69342 5.58053 9.31686 5.40796C8.94031 5.2354 8.77494 4.79024 8.94751 4.41369L9.40887 3.40695C9.58144 3.03039 10.0266 2.86503 10.4031 3.03759ZM9.1844 7.97795C8.48686 7.24492 7.40346 6.95906 6.4036 7.33C5.05409 7.83065 4.35527 9.34454 4.85574 10.7152C4.96097 11.0034 5.10993 11.2604 5.29156 11.4825C5.55382 11.8031 5.50651 12.2756 5.1859 12.5379C4.86528 12.8001 4.39277 12.7528 4.13051 12.4322C3.84362 12.0815 3.61028 11.6776 3.44672 11.2297C2.66609 9.09168 3.75052 6.71436 5.88186 5.92366C7.46648 5.33578 9.17676 5.79397 10.271 6.94392C10.5566 7.24398 10.5448 7.71871 10.2447 8.00425C9.94467 8.28979 9.46994 8.27801 9.1844 7.97795ZM0.587101 6.6763C0.761949 6.3008 1.2081 6.13813 1.5836 6.31298L2.58234 6.77804C2.95784 6.95289 3.1205 7.39903 2.94565 7.77453C2.77081 8.15004 2.32466 8.3127 1.94916 8.13785L0.950414 7.67279C0.574913 7.49794 0.412252 7.0518 0.587101 6.6763ZM2.75357 11.4909C2.89764 11.8793 2.69962 12.3109 2.31126 12.455L1.26083 12.8447C0.872477 12.9887 0.440863 12.7907 0.296789 12.4024C0.152716 12.014 0.350742 11.5824 0.739092 11.4383L1.78953 11.0486C2.17788 10.9046 2.60949 11.1026 2.75357 11.4909Z" fill="black"/>
</svg>
