<svg width="24" height="24" viewBox="0 0 24 24" fill="none" xmlns="http://www.w3.org/2000/svg">
<path fill-rule="evenodd" clip-rule="evenodd" d="M11.2127 5.24798C10.127 5.78908 9.20082 6.81284 8.78242 8.51146C8.69477 8.86729 8.40401 9.158 8.02379 9.22783C5.51091 9.68931 4.47628 11.6974 4.81167 13.3894C4.89221 13.7957 4.62813 14.1904 4.22182 14.2709C3.81551 14.3515 3.42084 14.0874 3.3403 13.6811C2.85601 11.2379 4.32724 8.55468 7.4142 7.82358C7.97207 5.90353 9.12224 4.61384 10.5437 3.90546C12.0243 3.16755 13.7387 3.0892 15.2771 3.4885C16.813 3.88717 18.2409 4.77971 19.1255 6.07158C19.9251 7.23929 20.2537 8.69805 19.849 10.3054C21.7893 10.7238 22.839 12.5228 22.7439 14.2067C22.6903 15.1561 22.278 16.1043 21.449 16.7855C20.6236 17.4637 19.456 17.8205 17.9846 17.7383C17.4283 17.7381 16.9198 17.73 16.2878 17.7198C15.9113 17.7138 15.491 17.7071 14.9907 17.7009C14.5766 17.6958 14.2449 17.3559 14.2501 16.9417C14.2552 16.5275 14.5951 16.1959 15.0092 16.201C15.5254 16.2074 15.9512 16.2142 16.3285 16.2203C16.9578 16.2304 17.4522 16.2383 18.0061 16.2383H18.0281L18.0501 16.2396C19.2467 16.31 20.0229 16.0159 20.4967 15.6266C20.971 15.2369 21.214 14.6944 21.2463 14.1221C21.3128 12.9449 20.508 11.7851 19.1166 11.7182C18.463 11.6868 18.0275 11.0237 18.2484 10.4139C18.7542 9.01825 18.5171 7.83796 17.8879 6.91906C17.2421 5.97593 16.1492 5.26456 14.9002 4.94038C13.6536 4.61682 12.319 4.69667 11.2127 5.24798Z" fill="black"/>
<path fill-rule="evenodd" clip-rule="evenodd" d="M7.20452 11.7753C6.4996 12.1179 5.89287 12.7623 5.60923 13.8504C5.51625 14.2071 5.22246 14.4861 4.85466 14.5556C3.26874 14.855 2.63452 16.038 2.76744 17.0274C2.83491 17.5296 3.09984 18.0167 3.59291 18.3736C4.08777 18.7318 4.85877 18.99 5.97406 18.9294C6.78135 18.8855 8.55802 18.9079 10.071 18.927C10.7944 18.9362 11.4576 18.9445 11.9257 18.9445H11.9472L11.9687 18.9458C13.0454 19.0076 13.5681 18.6472 13.7985 18.3108C14.047 17.948 14.0738 17.4509 13.8712 17.0248C13.6856 16.6347 13.3177 16.3276 12.768 16.2808C12.1439 16.2278 11.7114 15.5932 11.9208 14.9837C12.2196 14.1141 12.0532 13.3941 11.6434 12.8285C11.2159 12.2386 10.4923 11.7809 9.65221 11.5727C8.81471 11.3651 7.92994 11.4228 7.20452 11.7753ZM13.4952 14.8982C13.7186 13.78 13.448 12.7626 12.858 11.9483C12.1862 11.0213 11.131 10.3938 10.0131 10.1167C8.89249 9.83901 7.6399 9.89598 6.54887 10.4262C5.51776 10.9273 4.6783 11.8297 4.25027 13.1544C2.13807 13.7007 1.04752 15.4907 1.2808 17.2271C1.40229 18.1315 1.88315 18.9878 2.71341 19.5887C3.54187 20.1884 4.67171 20.5024 6.05548 20.4272C6.81381 20.3859 8.46846 20.4071 9.94823 20.4259C10.689 20.4354 11.386 20.4443 11.9048 20.4445C13.3539 20.5222 14.4398 20.029 15.0361 19.1584C15.6174 18.3097 15.6335 17.2379 15.2258 16.3805C14.9022 15.7002 14.3047 15.1373 13.4952 14.8982Z" fill="black"/>
</svg>
