<svg width="24" height="24" viewBox="0 0 24 24" fill="none" xmlns="http://www.w3.org/2000/svg">
<path fill-rule="evenodd" clip-rule="evenodd" d="M10.2147 4.40094C9.1293 4.94561 8.20158 5.97731 7.78254 7.69121C7.69387 8.05387 7.39695 8.34001 7.02331 8.40922C4.62166 8.85401 3.56836 10.7258 3.77561 12.3814C3.87979 13.2136 4.30235 14.0101 5.06805 14.5846C5.83407 15.1593 6.99422 15.5478 8.62328 15.4565C9.75304 15.3932 12.2366 15.4256 14.3657 15.4533C15.3919 15.4667 16.3358 15.479 17.0061 15.479H17.0283L17.0505 15.4803C18.2457 15.5511 19.0211 15.2554 19.4948 14.8634C19.9696 14.4705 20.2139 13.9225 20.2463 13.3432C20.3131 12.1499 19.5031 10.9836 18.1158 10.9168C17.4637 10.8854 17.0272 10.2244 17.2471 9.61427C17.7549 8.20515 17.5174 7.01283 16.8872 6.08541C16.2409 5.13428 15.1477 4.418 13.8997 4.09165C12.654 3.76588 11.3203 3.84611 10.2147 4.40094ZM18.8475 9.50411C19.2541 7.88628 18.9269 6.41813 18.1279 5.24233C17.2442 3.94201 15.8165 3.04246 14.2792 2.64045C12.7396 2.23784 11.0236 2.31671 9.5419 3.06028C8.11929 3.77417 6.96996 5.07322 6.41308 7.00558C3.46325 7.70896 1.99133 10.2039 2.28723 12.5677C2.44015 13.7893 3.06546 14.9574 4.16787 15.7844C5.26997 16.6113 6.79817 17.0612 8.7072 16.9542C9.7865 16.8937 12.1443 16.9247 14.2391 16.9522C15.2831 16.9659 16.2618 16.9788 16.9844 16.979C18.4572 17.0619 19.6257 16.702 20.4511 16.019C21.2797 15.3334 21.6906 14.38 21.744 13.427C21.8386 11.7375 20.7918 9.92463 18.8475 9.50411Z" fill="black"/>
<path fill-rule="evenodd" clip-rule="evenodd" d="M8.6708 17.8958C9.03035 18.1015 9.15509 18.5597 8.94942 18.9192L7.83915 20.8602C7.63348 21.2197 7.17528 21.3444 6.81574 21.1388C6.45619 20.9331 6.33145 20.4749 6.53712 20.1154L7.64739 18.1744C7.85306 17.8149 8.31125 17.6901 8.6708 17.8958Z" fill="black"/>
<path fill-rule="evenodd" clip-rule="evenodd" d="M14.2709 17.9958C14.6304 18.2014 14.7552 18.6596 14.5495 19.0192L13.4392 20.9601C13.2336 21.3197 12.7754 21.4444 12.4158 21.2388C12.0563 21.0331 11.9315 20.5749 12.1372 20.2153L13.2475 18.2744C13.4532 17.9148 13.9114 17.7901 14.2709 17.9958Z" fill="black"/>
<path fill-rule="evenodd" clip-rule="evenodd" d="M10.8896 19.1535C11.251 19.3559 11.3799 19.8129 11.1775 20.1743L10.6312 21.1498C10.4288 21.5112 9.97172 21.6401 9.61033 21.4377C9.24893 21.2353 9.12004 20.7783 9.32244 20.4169L9.86875 19.4414C10.0712 19.08 10.5282 18.9511 10.8896 19.1535Z" fill="black"/>
<path fill-rule="evenodd" clip-rule="evenodd" d="M16.7659 19.2735C17.1273 19.4759 17.2562 19.9329 17.0538 20.2943L16.5075 21.2698C16.3051 21.6312 15.8481 21.7601 15.4867 21.5577C15.1253 21.3553 14.9964 20.8982 15.1988 20.5369L15.7451 19.5614C15.9475 19.2 16.4045 19.0711 16.7659 19.2735Z" fill="black"/>
</svg>
