<svg width="24" height="24" viewBox="0 0 24 24" fill="none" xmlns="http://www.w3.org/2000/svg">
<path fill-rule="evenodd" clip-rule="evenodd" d="M10.0857 3.76579C8.92494 4.32674 7.94608 5.38276 7.50546 7.12012C7.41397 7.48086 7.1158 7.76489 6.74117 7.83122C4.28555 8.26599 3.17389 10.0296 3.25408 11.6234C3.33244 13.1809 4.57587 14.8481 7.47084 15.0152C7.88437 15.0391 8.20025 15.3937 8.17638 15.8072C8.15252 16.2207 7.79794 16.5366 7.38441 16.5127C3.84549 16.3085 1.8786 14.1361 1.75597 11.6988C1.63957 9.38512 3.21093 7.08499 6.14222 6.42212C6.72992 4.45079 7.94365 3.13499 9.43296 2.41524C10.9823 1.66648 12.7766 1.58661 14.3884 1.99224C15.9972 2.39713 17.4966 3.30442 18.4267 4.62227C19.2695 5.81643 19.6164 7.31232 19.1854 8.96091C21.0904 9.34597 22.2032 10.9764 22.2485 12.6159C22.2739 13.5332 21.9689 14.4738 21.2772 15.2113C20.5822 15.9522 19.5494 16.4334 18.2157 16.5314C17.8026 16.5617 17.4431 16.2514 17.4128 15.8383C17.3824 15.4252 17.6927 15.0657 18.1058 15.0354C19.1323 14.96 19.7889 14.6054 20.1831 14.1851C20.5806 13.7613 20.7645 13.2151 20.7491 12.6574C20.718 11.5312 19.8893 10.4403 18.4482 10.3786C17.782 10.3501 17.3528 9.67163 17.5803 9.06474C18.1152 7.63764 17.8671 6.43072 17.2012 5.48722C16.5164 4.51692 15.3541 3.78207 14.0223 3.44688C12.6933 3.11242 11.2678 3.19451 10.0857 3.76579Z" fill="black"/>
<path fill-rule="evenodd" clip-rule="evenodd" d="M14.0045 11.3451C14.4718 11.539 14.8021 12.0047 14.8021 12.5691V15.3689H15.4373C16.0213 15.3689 16.4335 15.7521 16.6048 16.1679C16.7753 16.5817 16.75 17.1128 16.4129 17.5341L13.0208 21.7725C13.0205 21.7729 13.0202 21.7732 13.02 21.7735C12.6434 22.2459 12.0551 22.3537 11.576 22.1549C11.1087 21.961 10.7783 21.4953 10.7783 20.9309V18.1311H10.1431C9.55772 18.1311 9.14863 17.7439 8.97898 17.3321C8.80992 16.9217 8.83122 16.3926 9.16405 15.9703L9.16756 15.9658L12.5597 11.7274C12.56 11.7271 12.5602 11.7267 12.5605 11.7264C12.937 11.254 13.5254 11.1463 14.0045 11.3451ZM13.3021 13.2003L10.5564 16.6311H11.5283C11.9425 16.6311 12.2783 16.9669 12.2783 17.3811V20.2997L15.0241 16.8689H14.0521C13.6379 16.8689 13.3021 16.5331 13.3021 16.1189V13.2003Z" fill="black"/>
</svg>
