<svg width="24" height="24" viewBox="0 0 24 24" fill="none" xmlns="http://www.w3.org/2000/svg">
<path fill-rule="evenodd" clip-rule="evenodd" d="M12.7736 13.6878C13.0497 13.6878 13.2736 13.9117 13.2736 14.1878V14.2904L13.3028 14.2541C13.4761 14.0391 13.7909 14.0052 14.0059 14.1785C14.2209 14.3517 14.2548 14.6665 14.0815 14.8815L13.2736 15.8842V17.1069L14.2683 16.513L14.7089 15.2742C14.8014 15.0141 15.0873 14.8782 15.3475 14.9707C15.6077 15.0632 15.7436 15.3492 15.651 15.6093L15.6158 15.7084L15.6994 15.6585C15.9365 15.517 16.2434 15.5944 16.385 15.8315C16.5266 16.0686 16.4491 16.3755 16.212 16.5171L16.1057 16.5806L16.1865 16.595C16.4584 16.6436 16.6393 16.9034 16.5908 17.1752C16.5422 17.4471 16.2824 17.628 16.0106 17.5794L14.7963 17.3624L13.7393 17.9935L14.8495 18.6564L16.0286 18.4456C16.3004 18.397 16.5602 18.578 16.6088 18.8498C16.6574 19.1217 16.4764 19.3814 16.2045 19.43L16.1589 19.4382L16.2381 19.4855C16.4752 19.6271 16.5527 19.934 16.4111 20.1711C16.2695 20.4082 15.9626 20.4857 15.7255 20.3441L15.6215 20.282L15.6691 20.4157C15.7616 20.6759 15.6257 20.9618 15.3655 21.0543C15.1053 21.1469 14.8194 21.011 14.7269 20.7508L14.274 19.4774L13.2736 18.8801V20.0914L14.0815 21.0941C14.2548 21.3091 14.2209 21.6239 14.0059 21.7971C13.7909 21.9704 13.4761 21.9365 13.3028 21.7215L13.2736 21.6852V21.7878C13.2736 22.0639 13.0497 22.2878 12.7736 22.2878C12.4974 22.2878 12.2736 22.0639 12.2736 21.7878V21.6852L12.2443 21.7215C12.071 21.9365 11.7562 21.9704 11.5412 21.7971C11.3262 21.6239 11.2924 21.3091 11.4656 21.0941L12.2736 20.0914V18.8687L11.2845 19.4592L10.8563 20.6633C10.7637 20.9235 10.4778 21.0594 10.2176 20.9669C9.95746 20.8743 9.82155 20.5884 9.91409 20.3282L9.93701 20.2638L9.84774 20.3171C9.61064 20.4587 9.30368 20.3812 9.16211 20.1441C9.02055 19.907 9.09799 19.6001 9.33509 19.4585L9.49459 19.3633L9.3786 19.3425C9.10677 19.294 8.92579 19.0342 8.97438 18.7624C9.02296 18.4905 9.28272 18.3096 9.55455 18.3581L10.804 18.5815L11.7887 17.9935L10.7403 17.3675L9.55455 17.5794C9.28272 17.628 9.02296 17.4471 8.97438 17.1752C8.92579 16.9034 9.10677 16.6436 9.3786 16.595L9.43087 16.5857L9.3612 16.5441C9.12411 16.4025 9.04666 16.0956 9.18823 15.8585C9.32979 15.6214 9.63676 15.5439 9.87385 15.6855L9.95933 15.7366L9.91409 15.6093C9.82155 15.3492 9.95746 15.0632 10.2176 14.9707C10.4778 14.8782 10.7637 15.0141 10.8563 15.2742L11.3069 16.5411L12.2736 17.1183V15.8842L11.4656 14.8815C11.2924 14.6665 11.3262 14.3517 11.5412 14.1785C11.7562 14.0052 12.071 14.0391 12.2443 14.2541L12.2736 14.2904V14.1878C12.2736 13.9117 12.4974 13.6878 12.7736 13.6878Z" fill="black"/>
<path fill-rule="evenodd" clip-rule="evenodd" d="M10.0856 3.76579C8.92494 4.32674 7.94608 5.38276 7.50546 7.12012C7.41397 7.48086 7.11579 7.76489 6.74117 7.83121C4.28555 8.26599 3.17389 10.0296 3.25408 11.6234C3.33244 13.1809 4.57587 14.8481 7.47084 15.0152C7.88437 15.0391 8.20025 15.3937 8.17638 15.8072C8.15251 16.2207 7.79794 16.5366 7.38441 16.5127C3.84549 16.3085 1.8786 14.1361 1.75597 11.6988C1.63957 9.38512 3.21093 7.08499 6.14222 6.42211C6.72991 4.45078 7.94364 3.13499 9.43296 2.41524C10.9823 1.66648 12.7766 1.58661 14.3884 1.99224C15.9972 2.39713 17.4966 3.30442 18.4267 4.62227C19.2695 5.81642 19.6163 7.31232 19.1854 8.9609C21.0904 9.34597 22.2032 10.9764 22.2485 12.6159C22.2739 13.5332 21.9689 14.4738 21.2772 15.2113C20.5822 15.9522 19.5494 16.4334 18.2157 16.5313C17.8026 16.5617 17.4431 16.2514 17.4128 15.8383C17.3824 15.4252 17.6927 15.0657 18.1058 15.0354C19.1323 14.96 19.7889 14.6054 20.1831 14.1851C20.5806 13.7613 20.7645 13.2151 20.7491 12.6573C20.718 11.5312 19.8893 10.4403 18.4482 10.3786C17.782 10.3501 17.3528 9.67162 17.5803 9.06473C18.1152 7.63763 17.8671 6.43072 17.2012 5.48721C16.5164 4.51692 15.3541 3.78207 14.0223 3.44688C12.6933 3.11242 11.2678 3.19451 10.0856 3.76579Z" fill="black"/>
</svg>
